<?xml version="1.0" encoding="UTF-8"?>
<svg xmlns="http://www.w3.org/2000/svg" xmlns:xlink="http://www.w3.org/1999/xlink" width="854" height="480" viewBox="0 0 854 480">
<defs>
<g>
<g id="glyph-0-0">
<path d="M 8.640625 -6.882812 L 8.144531 -6.882812 C 8.019531 -7.230469 7.800781 -7.585938 7.492188 -7.945312 C 7.183594 -8.304688 6.878906 -8.515625 6.574219 -8.582031 C 6.445312 -8.609375 6.265625 -8.628906 6.03125 -8.636719 C 5.800781 -8.644531 5.609375 -8.644531 5.457031 -8.644531 L 4.113281 -8.644531 L 4.113281 -5.085938 L 5.066406 -5.085938 C 5.304688 -5.085938 5.519531 -5.113281 5.714844 -5.167969 C 5.910156 -5.226562 6.089844 -5.335938 6.25 -5.496094 C 6.351562 -5.59375 6.449219 -5.769531 6.550781 -6.023438 C 6.65625 -6.273438 6.722656 -6.492188 6.75 -6.679688 L 7.246094 -6.679688 L 7.246094 -2.824219 L 6.75 -2.824219 C 6.726562 -3.007812 6.660156 -3.238281 6.550781 -3.511719 C 6.445312 -3.789062 6.34375 -3.976562 6.25 -4.082031 C 6.105469 -4.238281 5.9375 -4.34375 5.742188 -4.40625 C 5.546875 -4.460938 5.320312 -4.492188 5.066406 -4.492188 L 4.113281 -4.492188 L 4.113281 -1.828125 C 4.113281 -1.550781 4.136719 -1.332031 4.175781 -1.167969 C 4.21875 -1.007812 4.292969 -0.882812 4.40625 -0.792969 C 4.515625 -0.710938 4.664062 -0.65625 4.851562 -0.632812 C 5.042969 -0.605469 5.300781 -0.59375 5.625 -0.59375 C 5.777344 -0.59375 5.960938 -0.59375 6.171875 -0.597656 C 6.382812 -0.601562 6.570312 -0.617188 6.730469 -0.636719 C 6.914062 -0.660156 7.085938 -0.691406 7.242188 -0.734375 C 7.402344 -0.777344 7.519531 -0.84375 7.597656 -0.925781 C 7.804688 -1.136719 8.039062 -1.460938 8.300781 -1.898438 C 8.5625 -2.335938 8.734375 -2.660156 8.816406 -2.878906 L 9.289062 -2.878906 L 9.113281 0 L 0.449219 0 L 0.449219 -0.507812 C 0.570312 -0.515625 0.734375 -0.535156 0.945312 -0.558594 C 1.152344 -0.585938 1.300781 -0.617188 1.386719 -0.652344 C 1.550781 -0.71875 1.664062 -0.808594 1.71875 -0.914062 C 1.773438 -1.019531 1.804688 -1.15625 1.804688 -1.320312 L 1.804688 -7.839844 C 1.804688 -7.996094 1.78125 -8.125 1.730469 -8.226562 C 1.683594 -8.328125 1.570312 -8.421875 1.386719 -8.503906 C 1.273438 -8.554688 1.117188 -8.601562 0.910156 -8.644531 C 0.707031 -8.6875 0.554688 -8.71875 0.449219 -8.730469 L 0.449219 -9.238281 L 8.640625 -9.238281 Z "/>
</g>
<g id="glyph-0-1">
<path d="M 10.800781 0 L 5.167969 0 L 5.167969 -0.507812 C 5.707031 -0.539062 6.054688 -0.585938 6.210938 -0.648438 C 6.367188 -0.710938 6.445312 -0.792969 6.445312 -0.898438 C 6.445312 -0.953125 6.417969 -1.046875 6.363281 -1.167969 C 6.304688 -1.292969 6.226562 -1.433594 6.128906 -1.59375 C 5.976562 -1.851562 5.773438 -2.171875 5.519531 -2.554688 C 5.265625 -2.9375 5 -3.335938 4.726562 -3.742188 C 3.816406 -2.6875 3.238281 -1.988281 2.992188 -1.640625 C 2.75 -1.292969 2.625 -1.0625 2.625 -0.949219 C 2.625 -0.890625 2.636719 -0.839844 2.65625 -0.796875 C 2.675781 -0.757812 2.726562 -0.714844 2.808594 -0.675781 C 2.867188 -0.640625 2.972656 -0.609375 3.121094 -0.578125 C 3.269531 -0.550781 3.441406 -0.523438 3.644531 -0.507812 L 3.644531 0 L 0.0585938 0 L 0.0585938 -0.507812 C 0.246094 -0.519531 0.394531 -0.539062 0.503906 -0.566406 C 0.617188 -0.59375 0.726562 -0.628906 0.835938 -0.675781 C 1.085938 -0.792969 1.308594 -0.941406 1.503906 -1.125 C 1.699219 -1.304688 1.902344 -1.511719 2.113281 -1.75 C 2.414062 -2.09375 2.757812 -2.484375 3.140625 -2.917969 C 3.519531 -3.351562 3.921875 -3.8125 4.34375 -4.304688 C 3.945312 -4.90625 3.546875 -5.492188 3.148438 -6.0625 C 2.746094 -6.628906 2.410156 -7.113281 2.132812 -7.511719 C 1.992188 -7.710938 1.820312 -7.914062 1.613281 -8.113281 C 1.40625 -8.3125 1.191406 -8.453125 0.964844 -8.542969 C 0.851562 -8.589844 0.726562 -8.628906 0.585938 -8.664062 C 0.449219 -8.695312 0.28125 -8.71875 0.0859375 -8.730469 L 0.0859375 -9.238281 L 5.730469 -9.238281 L 5.730469 -8.730469 C 5.289062 -8.714844 4.964844 -8.675781 4.753906 -8.613281 C 4.546875 -8.550781 4.441406 -8.460938 4.441406 -8.339844 C 4.441406 -8.277344 4.460938 -8.203125 4.5 -8.109375 C 4.542969 -8.015625 4.625 -7.867188 4.746094 -7.667969 C 4.851562 -7.496094 5.011719 -7.242188 5.230469 -6.910156 C 5.449219 -6.574219 5.699219 -6.195312 5.976562 -5.769531 C 6.796875 -6.746094 7.308594 -7.382812 7.519531 -7.679688 C 7.730469 -7.976562 7.835938 -8.179688 7.835938 -8.289062 C 7.835938 -8.414062 7.773438 -8.507812 7.652344 -8.570312 C 7.53125 -8.632812 7.25 -8.6875 6.804688 -8.730469 L 6.804688 -9.238281 L 10.402344 -9.238281 L 10.402344 -8.730469 C 10.238281 -8.726562 10.101562 -8.710938 9.996094 -8.683594 C 9.890625 -8.660156 9.769531 -8.617188 9.628906 -8.5625 C 9.359375 -8.441406 9.132812 -8.289062 8.953125 -8.113281 C 8.769531 -7.933594 8.570312 -7.726562 8.351562 -7.488281 C 8.03125 -7.128906 7.722656 -6.785156 7.429688 -6.445312 C 7.136719 -6.109375 6.777344 -5.699219 6.351562 -5.210938 C 6.878906 -4.421875 7.328125 -3.761719 7.703125 -3.226562 C 8.074219 -2.695312 8.429688 -2.191406 8.761719 -1.726562 C 8.894531 -1.527344 9.0625 -1.324219 9.265625 -1.125 C 9.472656 -0.921875 9.6875 -0.777344 9.910156 -0.691406 C 10.011719 -0.652344 10.132812 -0.613281 10.265625 -0.578125 C 10.402344 -0.542969 10.578125 -0.519531 10.800781 -0.507812 Z "/>
</g>
<g id="glyph-0-2">
<path d="M 10.476562 0 L 5.441406 0 L 5.441406 -0.507812 C 5.675781 -0.523438 5.953125 -0.566406 6.269531 -0.632812 C 6.585938 -0.703125 6.742188 -0.785156 6.742188 -0.886719 C 6.742188 -0.921875 6.738281 -0.960938 6.734375 -1.003906 C 6.726562 -1.046875 6.707031 -1.105469 6.675781 -1.179688 L 5.890625 -3.09375 L 2.699219 -3.09375 C 2.625 -2.914062 2.546875 -2.707031 2.457031 -2.46875 C 2.367188 -2.230469 2.292969 -2.015625 2.226562 -1.828125 C 2.144531 -1.585938 2.097656 -1.410156 2.082031 -1.300781 C 2.066406 -1.195312 2.058594 -1.117188 2.058594 -1.074219 C 2.058594 -0.933594 2.164062 -0.816406 2.375 -0.71875 C 2.585938 -0.621094 2.933594 -0.550781 3.425781 -0.507812 L 3.425781 0 L -0.363281 0 L -0.363281 -0.507812 C -0.222656 -0.515625 -0.0585938 -0.539062 0.121094 -0.578125 C 0.300781 -0.613281 0.441406 -0.664062 0.546875 -0.730469 C 0.726562 -0.832031 0.875 -0.960938 1 -1.113281 C 1.125 -1.265625 1.226562 -1.445312 1.308594 -1.652344 C 1.8125 -2.875 2.316406 -4.09375 2.820312 -5.320312 C 3.328125 -6.542969 3.886719 -7.894531 4.5 -9.367188 L 5.800781 -9.367188 C 6.652344 -7.277344 7.316406 -5.621094 7.800781 -4.40625 C 8.28125 -3.191406 8.691406 -2.183594 9.03125 -1.386719 C 9.085938 -1.257812 9.15625 -1.136719 9.246094 -1.03125 C 9.332031 -0.925781 9.457031 -0.824219 9.617188 -0.730469 C 9.738281 -0.660156 9.878906 -0.609375 10.039062 -0.574219 C 10.199219 -0.539062 10.34375 -0.515625 10.476562 -0.507812 L 10.476562 0 M 5.621094 -3.738281 L 4.285156 -7.078125 L 2.964844 -3.738281 Z "/>
</g>
<g id="glyph-0-3">
<path d="M 13.144531 0 L 8.136719 0 L 8.136719 -0.507812 C 8.285156 -0.519531 8.46875 -0.542969 8.679688 -0.574219 C 8.898438 -0.601562 9.042969 -0.636719 9.121094 -0.671875 C 9.28125 -0.734375 9.398438 -0.824219 9.464844 -0.9375 C 9.535156 -1.050781 9.570312 -1.195312 9.570312 -1.367188 L 9.570312 -8.269531 L 6.394531 -0.148438 L 5.574219 -0.148438 C 5.535156 -0.292969 5.4375 -0.578125 5.28125 -1.003906 C 5.128906 -1.429688 5.003906 -1.769531 4.910156 -2.023438 L 2.570312 -8.371094 L 2.570312 -2.753906 C 2.570312 -2.214844 2.605469 -1.804688 2.679688 -1.527344 C 2.75 -1.246094 2.867188 -1.042969 3.027344 -0.910156 C 3.136719 -0.820312 3.328125 -0.734375 3.609375 -0.652344 C 3.890625 -0.570312 4.085938 -0.519531 4.199219 -0.507812 L 4.199219 0 L 0.226562 0 L 0.226562 -0.507812 C 0.335938 -0.519531 0.511719 -0.550781 0.757812 -0.59375 C 1.003906 -0.640625 1.203125 -0.71875 1.359375 -0.832031 C 1.535156 -0.953125 1.652344 -1.160156 1.710938 -1.449219 C 1.773438 -1.738281 1.804688 -2.148438 1.804688 -2.683594 L 1.804688 -7.257812 C 1.804688 -7.535156 1.769531 -7.769531 1.699219 -7.953125 C 1.628906 -8.136719 1.527344 -8.285156 1.386719 -8.390625 C 1.214844 -8.527344 1.035156 -8.613281 0.851562 -8.652344 C 0.671875 -8.691406 0.484375 -8.71875 0.300781 -8.730469 L 0.300781 -9.238281 L 4.554688 -9.238281 L 6.832031 -3.152344 L 8.753906 -8.089844 C 8.816406 -8.273438 8.882812 -8.492188 8.941406 -8.742188 C 9.003906 -8.996094 9.035156 -9.160156 9.039062 -9.238281 L 13.132812 -9.238281 L 13.132812 -8.730469 C 12.992188 -8.722656 12.847656 -8.703125 12.695312 -8.679688 C 12.542969 -8.652344 12.398438 -8.617188 12.257812 -8.574219 C 12.089844 -8.519531 11.976562 -8.429688 11.921875 -8.308594 C 11.871094 -8.1875 11.84375 -8.050781 11.84375 -7.902344 L 11.84375 -1.359375 C 11.84375 -1.203125 11.871094 -1.074219 11.921875 -0.964844 C 11.976562 -0.859375 12.089844 -0.769531 12.257812 -0.691406 C 12.347656 -0.652344 12.488281 -0.613281 12.683594 -0.578125 C 12.882812 -0.542969 13.035156 -0.519531 13.144531 -0.507812 Z "/>
</g>
<g id="glyph-0-4">
<path d="M 9.109375 -6.925781 C 9.109375 -6.40625 9 -5.957031 8.785156 -5.582031 C 8.570312 -5.207031 8.273438 -4.902344 7.898438 -4.667969 C 7.507812 -4.425781 7.058594 -4.25 6.558594 -4.140625 C 6.058594 -4.03125 5.496094 -3.976562 4.871094 -3.976562 L 4.113281 -3.976562 L 4.113281 -1.378906 C 4.113281 -1.222656 4.144531 -1.089844 4.203125 -0.972656 C 4.261719 -0.859375 4.371094 -0.765625 4.539062 -0.695312 C 4.625 -0.660156 4.765625 -0.625 4.960938 -0.585938 C 5.15625 -0.546875 5.320312 -0.519531 5.457031 -0.507812 L 5.457031 0 L 0.449219 0 L 0.449219 -0.507812 C 0.574219 -0.519531 0.742188 -0.539062 0.949219 -0.5625 C 1.160156 -0.585938 1.304688 -0.617188 1.386719 -0.652344 C 1.554688 -0.71875 1.667969 -0.804688 1.722656 -0.90625 C 1.777344 -1.003906 1.804688 -1.144531 1.804688 -1.320312 L 1.804688 -7.839844 C 1.804688 -7.992188 1.777344 -8.121094 1.726562 -8.234375 C 1.671875 -8.34375 1.558594 -8.433594 1.386719 -8.507812 C 1.265625 -8.5625 1.101562 -8.609375 0.902344 -8.648438 C 0.699219 -8.691406 0.550781 -8.71875 0.449219 -8.730469 L 0.449219 -9.238281 L 5.546875 -9.238281 C 6.742188 -9.238281 7.632812 -9.046875 8.222656 -8.667969 C 8.8125 -8.289062 9.109375 -7.707031 9.109375 -6.925781 M 6.570312 -6.59375 C 6.570312 -7.289062 6.429688 -7.804688 6.148438 -8.140625 C 5.867188 -8.476562 5.371094 -8.644531 4.65625 -8.644531 L 4.113281 -8.644531 L 4.113281 -4.589844 L 4.386719 -4.589844 C 5.101562 -4.589844 5.640625 -4.753906 6.011719 -5.082031 C 6.382812 -5.410156 6.570312 -5.914062 6.570312 -6.59375 Z "/>
</g>
<g id="glyph-0-5">
<path d="M 9.140625 -2.960938 L 8.957031 0 L 0.449219 0 L 0.449219 -0.507812 C 0.601562 -0.519531 0.777344 -0.542969 0.984375 -0.570312 C 1.1875 -0.597656 1.320312 -0.625 1.386719 -0.652344 C 1.542969 -0.710938 1.652344 -0.796875 1.710938 -0.90625 C 1.773438 -1.011719 1.804688 -1.152344 1.804688 -1.320312 L 1.804688 -7.839844 C 1.804688 -7.996094 1.78125 -8.125 1.730469 -8.226562 C 1.683594 -8.328125 1.570312 -8.421875 1.386719 -8.503906 C 1.253906 -8.5625 1.089844 -8.613281 0.902344 -8.648438 C 0.710938 -8.6875 0.5625 -8.714844 0.449219 -8.730469 L 0.449219 -9.238281 L 5.519531 -9.238281 L 5.519531 -8.730469 C 5.382812 -8.71875 5.21875 -8.699219 5.027344 -8.675781 C 4.839844 -8.652344 4.675781 -8.617188 4.539062 -8.574219 C 4.367188 -8.519531 4.253906 -8.429688 4.199219 -8.3125 C 4.144531 -8.191406 4.113281 -8.054688 4.113281 -7.902344 L 4.113281 -1.828125 C 4.113281 -1.542969 4.132812 -1.316406 4.171875 -1.152344 C 4.210938 -0.988281 4.289062 -0.867188 4.402344 -0.789062 C 4.515625 -0.707031 4.671875 -0.652344 4.875 -0.628906 C 5.074219 -0.605469 5.355469 -0.59375 5.710938 -0.59375 C 6.058594 -0.59375 6.394531 -0.613281 6.722656 -0.652344 C 7.050781 -0.695312 7.285156 -0.785156 7.429688 -0.925781 C 7.648438 -1.144531 7.875 -1.457031 8.109375 -1.859375 C 8.339844 -2.261719 8.527344 -2.628906 8.664062 -2.960938 Z "/>
</g>
</g>
</defs>
<g fill="rgb(34.509804%, 76.862745%, 86.666667%)" fill-opacity="1">
<use xlink:href="#glyph-0-0" x="30" y="32.226562"/>
<use xlink:href="#glyph-0-1" x="40" y="32.226562"/>
<use xlink:href="#glyph-0-2" x="51" y="32.226562"/>
<use xlink:href="#glyph-0-3" x="61" y="32.226562"/>
<use xlink:href="#glyph-0-4" x="75" y="32.226562"/>
<use xlink:href="#glyph-0-5" x="84" y="32.226562"/>
<use xlink:href="#glyph-0-0" x="93" y="32.226562"/>
</g>
</svg>
